<?xml version="1.0" encoding="UTF-8"?>
<svg width="1000px" height="1000px" viewBox="0 0 1000 1000" version="1.1" xmlns="http://www.w3.org/2000/svg" xmlns:xlink="http://www.w3.org/1999/xlink">
    <title>Group</title>
    <g id="Page-1" stroke="none" stroke-width="1" fill="none" fill-rule="evenodd">
        <g id="Group">
            <rect id="Rectangle" stroke="#979797" fill="#020099" x="0.5" y="0.5" width="999" height="999" rx="64"></rect>
            <g transform="translate(29, 334)" id="Path" stroke="#A8C4FF" stroke-linecap="round" stroke-opacity="0.771798514" stroke-width="15">
                <path d="M0,322.5 C78.5833333,291.166667 157.166667,291.166667 235.75,322.5 C314.333333,353.833333 392.916667,353.833333 471.5,322.5 C550.083333,291.166667 628.666667,291.166667 707.25,322.5 C785.833333,353.833333 864.416667,353.833333 943,322.5"></path>
                <path d="M0,379.5 C78.5833333,348.166667 157.166667,348.166667 235.75,379.5 C314.333333,410.833333 392.916667,410.833333 471.5,379.5 C550.083333,348.166667 628.666667,348.166667 707.25,379.5 C785.833333,410.833333 864.416667,410.833333 943,379.5"></path>
                <path d="M0,436.5 C78.5833333,405.166667 157.166667,405.166667 235.75,436.5 C314.333333,467.833333 392.916667,467.833333 471.5,436.5 C550.083333,405.166667 628.666667,405.166667 707.25,436.5 C785.833333,467.833333 864.416667,467.833333 943,436.5"></path>
                <path d="M0,494.5 C78.5833333,463.166667 157.166667,463.166667 235.75,494.5 C314.333333,525.833333 392.916667,525.833333 471.5,494.5 C550.083333,463.166667 628.666667,463.166667 707.25,494.5 C785.833333,525.833333 864.416667,525.833333 943,494.5"></path>
                <path d="M0,551.5 C78.5833333,520.166667 157.166667,520.166667 235.75,551.5 C314.333333,582.833333 392.916667,582.833333 471.5,551.5 C550.083333,520.166667 628.666667,520.166667 707.25,551.5 C785.833333,582.833333 864.416667,582.833333 943,551.5"></path>
                <path d="M0,608.5 C78.5833333,577.166667 157.166667,577.166667 235.75,608.5 C314.333333,639.833333 392.916667,639.833333 471.5,608.5 C550.083333,577.166667 628.666667,577.166667 707.25,608.5 C785.833333,639.833333 864.416667,639.833333 943,608.5"></path>
            </g>
            <g transform="translate(53, 193)" fill="#FFFFFF" fill-rule="nonzero" stroke="#020099" stroke-width="10">
                <path d="M78.8058252,11 L78.8058252,226.14965 L201.8,226.14965 L201.8,288 L4.8,288 L4.8,11 L78.8058252,11 Z" id="Path"></path>
                <path d="M307.8,11 L307.8,288 L234.8,288 L234.8,11 L307.8,11 Z" id="Path"></path>
                <path d="M592.324793,321 L628.399174,284.531835 L594.328926,250.468165 C616.37438,224.419476 628.8,189.554307 628.8,149.479401 C628.8,63.7191011 571.882645,0 482.899174,0 C393.915702,0 337.8,63.7191011 337.8,149.479401 C337.8,235.2397 393.915702,298.558052 482.899174,298.558052 C509.754545,298.558052 533.403306,292.947566 553.845455,282.52809 L592.324793,321 Z M483.832967,232.48505 C443.595721,232.48505 423.074725,197.092563 423.074725,150.036642 C423.074725,102.980721 443.595721,67.1860465 483.832967,67.1860465 C524.070213,67.1860465 544.591209,102.980721 544.591209,150.036642 C544.591209,166.526323 542.176974,181.005068 537.348504,193.472876 L510.38955,166.526323 L474.176028,203.125373 L501.134983,230.071926 C495.904141,231.680675 489.868554,232.48505 483.832967,232.48505 Z" id="Shape"></path>
                <path d="M78.662069,326 L78.662069,503.722527 C78.662069,518.951194 83.1227727,531.084593 91.8672517,539.38991 C100.106137,547.215025 112.319138,551.787088 129.003762,551.787088 C144.446322,551.787088 156.094828,546.760752 164.079386,538.45255 C172.506932,529.683404 176.937931,517.076585 176.937931,502.112637 L176.937931,326 L250.8,326 L250.8,498.892857 C250.8,533.428094 240.498919,561.474518 219.268776,580.566246 C198.757577,599.011445 168.255586,609 127.8,609 C87.0274751,609 56.4500779,599.240131 35.9798948,580.831817 C14.9207267,561.893843 4.8,533.910391 4.8,498.892857 L4.8,326 L78.662069,326 Z" id="Path"></path>
                <path d="M365.8,326 L365.8,603 L292.8,603 L292.8,326 L365.8,326 Z" id="Path"></path>
                <path d="M405.8,608 L534.861856,608 C624.119588,608 678.8,556.620979 678.8,465.102098 C678.8,373.984615 621.305155,321 538.480412,321 L405.8,321 L405.8,608 Z M490.376471,538.650558 L490.376471,390.349442 L528.614729,390.349442 C568.865527,390.349442 594.223529,417.678645 594.223529,465.10285 C594.223529,513.732755 567.255495,538.650558 528.614729,538.650558 L490.376471,538.650558 Z" id="Shape"></path>
                <path d="M828.947992,382 L828.947992,448.198783 L888.8,448.198783 L888.8,503.993915 L828.947992,503.993915 L828.947992,571 L768.652008,571 L768.652008,503.993915 L708.8,503.993915 L708.8,448.198783 L768.652008,448.198783 L768.652008,382 L828.947992,382 Z" id="Path"></path>
            </g>
        </g>
    </g>
</svg>